<?xml version="1.0" encoding="utf-8"?>
<!-- Generator: Adobe Illustrator 24.2.1, SVG Export Plug-In . SVG Version: 6.00 Build 0)  -->
<svg version="1.1" id="Camada_1" xmlns="http://www.w3.org/2000/svg" xmlns:xlink="http://www.w3.org/1999/xlink" x="0px" y="0px"
	 viewBox="0 0 545.28 524" style="enable-background:new 0 0 545.28 524;" xml:space="preserve">
<style type="text/css">
	.st0{fill:#1D1D1B;}
	.st1{fill:#FFFFFF;}
</style>
<g>
	<path class="st1" d="M450.48,231.48c0.01-2.03-0.81-2.12-2.47-2.25c-6.99-0.55-13.5,0.42-19.46,4.49c-2.8,1.91-5.98,3.26-9.01,4.83
		c-0.9,0.47-1.69,1.03-2.93,0.47c-8.76-3.95-18.32-5.11-27.44-7.8c-1.07-0.32-2.77,0.19-3.1-1.7c-0.31-1.76,0.89-2.5,2.01-3.38
		c5.29-4.15,9.19-9.38,12.02-15.47c4.4-9.48,3.92-19.56,3.43-29.55c-0.89-18.08-13.56-33.47-30.98-38.32
		c-3.74-1.04-7.58-1.16-11.77-1.33c1.86-4.39,3.53-8.51,5.38-12.55c0.74-1.62,0.61-2.65-0.72-3.95
		c-9.24-9.11-18.43-18.27-27.51-27.54c-1.52-1.55-2.48-1.4-4.06-0.33c-4.58,3.11-9.29,6.01-13.86,9.14
		c-1.55,1.06-2.72,1.14-4.39,0.21c-5.45-3.04-11.22-5.44-17.22-7.17c-1.88-0.54-2.67-1.46-3.02-3.31
		c-1.07-5.55-2.43-11.04-3.42-16.6c-0.33-1.88-1.12-2.2-2.78-2.2c-13.33,0.05-26.66,0.07-39.99-0.02c-2-0.01-2.5,0.74-2.83,2.56
		c-1,5.44-2.32,10.82-3.37,16.25c-0.36,1.84-1.1,2.78-3,3.33c-6.11,1.77-11.98,4.21-17.54,7.31c-1.41,0.78-2.44,0.73-3.77-0.17
		c-4.68-3.16-9.49-6.15-14.17-9.31c-1.56-1.05-2.52-1.28-4.06,0.3c-9.07,9.27-18.27,18.43-27.51,27.54
		c-1.33,1.31-1.44,2.34-0.72,3.96c1.82,4.04,3.46,8.17,5.29,12.56c-1.32,0.07-2.23,0.11-3.13,0.16
		c-15.95,0.81-27.7,8.37-35.21,22.34c-6,11.17-5.07,23.35-3.96,35.3c1.04,11.18,6.62,20.23,15.48,27.16
		c1.12,0.88,1.85,1.75,1.59,3.22c-0.27,1.5-1.61,1.17-2.53,1.42c-3.64,0.97-7.35,1.7-10.93,2.81c-1.89,0.59-3.31,0.31-4.95-0.67
		c-7.27-4.34-14.68-8.47-21.9-12.89c-3.32-2.03-6.64-3.15-10.6-2.91c-4.46,0.27-8.96,0.02-13.44-0.01c0,40.36,0,80.72,0,121.08
		c0.79,1.54,2.34,1.87,3.78,2.35c16.66,5.54,33.32,11.08,49.95,16.68c4.39,1.48,8.85,0.97,13.31,0.87c1.1-0.02,2.14-0.52,2.65-1.52
		c1.11-2.17,2.48-1.57,4.05-0.61c3.22,1.96,6.4,3.99,9.71,5.8c2.12,1.16,3.28,2.75,3.92,5.1c2.05,7.51,6.7,12.6,14.43,14.48
		c1.7,0.41,2.59,1.15,3.02,2.91c1.84,7.51,6.52,12.44,14.01,14.4c2.42,0.64,3.35,1.9,3.96,4.22c1.72,6.51,5.95,10.99,12.36,12.95
		c3.04,0.93,4.61,2.3,5.58,5.43c3.38,10.86,14.79,16.02,25.2,11.56c2.24-0.96,3.66-0.58,5.32,1c3.01,2.88,6.47,5.03,10.71,5.63
		c2.6,0,5.19,0,7.79,0c8.31-2.49,13.82-7.5,14.79-16.54c0.13-1.21,0.95-1.08,1.76-1.21c8.83-1.42,14.1-6.5,15.59-15.35
		c0.25-1.5,0.79-2.1,2.41-2.33c8.26-1.19,13.72-6.64,15.05-14.97c0.27-1.71,0.91-2.34,2.6-2.64c9-1.58,14.62-7.81,15.1-16.87
		c0.1-1.97,0.83-2.88,2.48-3.7c9.5-4.67,18.95-9.43,28.42-14.16c23.98-11.99,47.96-23.98,71.94-35.97c1.32-0.66,2.67-0.98,2.67-3.1
		C450.41,285.75,450.41,258.61,450.48,231.48z M363.12,153.22c11.45-0.01,23.62,8.64,26.85,20.06c3.1,10.93,3.49,22.13-0.76,32.95
		c-2.3,5.87-6.66,10.27-12.19,13.3c-2.08,1.14-2.7,2.49-2.6,4.75c0.18,4.24,0.17,8.5,0.02,12.74c-0.07,2.02,0.54,2.8,2.59,3.28
		c8.57,2,17.08,4.24,26.55,6.64c-21.7,11.43-42.71,22.5-64.26,33.85c-0.23-12.91,2.03-25.73-8.5-36.05
		c6.36-1.63,12.07-3.19,17.84-4.5c1.86-0.42,2.53-1.11,2.48-3.03c-0.12-4.6-0.1-9.2-0.01-13.8c0.03-1.59-0.42-2.53-1.86-3.35
		c-11.08-6.33-16.19-15.99-15.73-28.69c0.21-5.87-0.45-11.76,1.38-17.55C338.79,161.55,350.04,153.23,363.12,153.22z M257.49,223.33
		c0.03-1.61-0.49-2.54-1.91-3.36c-11.07-6.38-16.08-16.07-15.57-28.76c0.24-5.86-0.46-11.75,1.4-17.53
		c3.4-10.6,13.33-18.94,23.69-20.15c13.73-1.6,24.16,5.82,29.2,15.03c3.47,6.35,4.05,9.7,4.05,21.77
		c0.83,9.43-1.94,18.78-10.31,26.02c-0.44,0.38-0.86,0.89-1.38,1.08c-5.49,2.07-6.5,6.28-5.82,11.52c0.3,2.32,0.32,4.75,0,7.06
		c-0.43,3.09,1.03,4,3.71,4.62c9.62,2.26,19.2,4.68,28.76,7.13c9.24,2.37,14.12,8.46,14.36,18.03c0.16,6.25-0.05,12.5,0.07,18.75
		c0.05,2.32-0.78,3.23-3.07,3.09c-1.53-0.09-3.01-0.24-4.51-0.67c-11.52-3.32-22.93-7.26-34.65-9.59
		c-10.21-2.03-20.01-5.17-29.8-8.39c-13.85-4.55-27.8-5.97-42.09-2.82c-2.21,0.49-3.17,0.32-2.83-2.44c1-8.1,5.71-13.77,13.88-15.89
		c10.02-2.59,20.06-5.12,30.12-7.53c1.91-0.46,2.81-1.03,2.73-3.19C257.35,232.53,257.4,227.93,257.49,223.33z M317.99,235.82
		c-0.79,0.2-1.67,0.59-2.4,0.42c-7.32-1.76-14.7-3.34-21.87-5.59c-2.63-0.83-1.26-2.89,0.43-4.2c5.7-4.43,10.14-9.9,12.69-16.66
		c6.11-16.21,5.77-44.16-11.34-58.23c-12.69-10.43-26.87-13.14-41.95-6.82c-15.57,6.52-23.91,18.87-25.24,35.78
		c-0.2,2.58-0.03,5.19-0.03,7.61c-0.69,11.73,1.67,22.42,9.09,31.64c2.01,2.49,4.23,4.77,6.83,6.63c1.17,0.83,1.82,1.73,1.61,3.21
		c-0.22,1.58-1.56,1.2-2.47,1.44c-6.26,1.63-12.54,3.17-18.81,4.79c-1.4,0.36-2.7,0.41-4.13,0.03c-6.37-1.68-12.77-3.23-19.15-4.87
		c-2.5-0.65-3.17-2.6-1.21-4.08c15.28-11.57,17.73-27.71,16.39-45.28c-0.4-5.21-1.41-10.25-3.61-15.01
		c-0.58-1.25-0.6-2.28,0.17-3.58c11.7-19.69,28.72-31.3,51.71-32.75c26.41-1.67,46.28,9.77,60.27,31.99c1.18,1.88,0.4,3.22-0.07,4.9
		c-5.1,18.34-6.02,36.23,6.04,52.59c1.9,2.57,4.22,4.77,6.83,6.63c1.2,0.86,1.73,1.82,1.53,3.25c-0.23,1.56-1.59,1.18-2.5,1.42
		C330.55,232.69,324.27,234.25,317.99,235.82z M191.89,122.58c3.17-3.17,6.44-6.25,9.48-9.54c1.71-1.86,2.96-2.34,5.23-0.64
		c3.76,2.82,7.9,5.13,11.78,7.79c1.38,0.95,2.38,0.97,3.78,0.06c8.59-5.52,17.95-9.3,27.87-11.63c1.8-0.42,2.53-1.19,2.86-2.92
		c0.89-4.74,2-9.44,2.88-14.19c0.37-1.96,1.17-2.69,3.27-2.65c6.84,0.14,13.69,0.13,20.53,0.01c1.97-0.04,2.68,0.71,3.02,2.51
		c0.88,4.63,2,9.21,2.82,13.84c0.35,1.96,0.99,3,3.14,3.48c9.83,2.22,19.04,6.06,27.54,11.49c1.57,1,2.65,0.85,4.08-0.13
		c3.99-2.72,8.11-5.24,12.08-7.98c1.61-1.11,2.64-1.24,4.15,0.33c4.97,5.21,10.1,10.26,15.24,15.3c1.2,1.17,1.42,2.14,0.69,3.7
		c-1.78,3.84-3.35,7.77-5.02,11.66c-0.28,0.64-0.49,1.53-1.01,1.8c-4.26,2.3-8.37,4.8-11.94,8.11c-0.17,0.15-0.39,0.24-0.65,0.39
		c-1.12-0.3-1.49-1.4-2.05-2.22c-6.22-9.1-14.03-16.57-23.55-22.07c-22.39-12.94-45.66-14.52-69.47-4.35
		c-13.32,5.69-24.07,14.71-32.12,26.79c-1.57,2.35-2.5,2.42-4.35,0.42c-1.42-1.53-3.14-3.08-5.03-3.82
		c-4.77-1.86-6.71-5.69-8.44-10.07C185.24,129.3,185.11,129.35,191.89,122.58z M161.63,240.22c1.77-0.36,2.32-1.05,2.28-2.79
		c-0.1-4.71-0.1-9.43,0-14.15c0.04-1.62-0.51-2.52-1.92-3.33c-10.78-6.23-15.88-15.67-15.53-28.08c0.17-5.98-0.53-12.01,1.31-17.89
		c3.9-12.45,14.68-20.47,28.06-20.74c11.2-0.23,23.32,7.99,26.76,19.53c3.66,12.28,4.34,24.83-2.18,36.66
		c-2.5,4.53-6.35,7.89-10.87,10.35c-1.8,0.98-2.39,2.18-2.32,4.18c0.16,4.24,0.21,8.49,0.01,12.73c-0.11,2.39,0.77,3.22,3.01,3.71
		c5.57,1.23,11.08,2.75,16.95,4.24c-2.51,3.35-4.82,6.43-6.17,10.09c-1.28,3.47-2.11,7.04-1.9,10.71c0.17,2.94-0.54,4.39-3.76,4.85
		c-4.73,0.68-9.37,1.96-14.06,2.98c0-4.19,1.28-8.85-0.37-11.93c-1.57-2.94-6.17-4.29-9.49-6.25c-6.58-3.89-13.2-7.71-19.8-11.57
		c-0.09-0.05-0.15-0.18-0.5-0.61C154.75,241.96,158.16,240.91,161.63,240.22z M122.39,337.89c-6.53-2.35-13.13-4.51-19.76-6.55
		c-2.28-0.7-3.06-1.73-3.04-4.2c0.13-15.81,0.07-31.62,0.07-47.44c0-15.58,0-31.15,0-46.73c0-3.94,1.72-4.94,5.42-3
		c2.5,1.31,4.9,2.82,7.34,4.24c10.38,6.04,20.73,12.1,31.15,18.08c1.75,1.01,2.35,1.88,1.79,4.09
		c-6.75,26.58-13.36,53.19-19.95,79.8C124.95,338.03,124.46,338.63,122.39,337.89z M148.71,343.45c-0.64,2.28-1.53,2.96-3.8,1.99
		c-2.37-1.01-4.84-1.82-7.33-2.53c-1.31-0.37-1.81-0.94-1.33-2.33c2.96-11.76,5.95-23.61,8.93-35.47
		c3.52-14.03,7.15-28.02,10.44-42.1c0.75-3.21,1.7-2.8,3.79-1.43c2.45,1.61,4.97,3.19,7.62,4.43c2.49,1.17,3.08,2.56,2.3,5.25
		C162.37,295.29,155.52,319.36,148.71,343.45z M197.11,368.45c-2.54,1.94-5.89,1.25-7.94-1.09c-2.08-2.37-2.6-5.24-0.68-7.72
		c3.59-4.64,7.87-8.69,12.39-12.43c0.91-0.76,2.12-0.99,3.33-0.95c4.85,0.03,8.24,5.52,5.49,9.52
		C206.31,360.7,201.87,364.82,197.11,368.45z M214.59,386.08c-0.85,0.68-2.16,0.76-2.87,0.99c-5.46-0.16-8.59-5.81-5.61-9.94
		c3.37-4.66,7.61-8.62,12.09-12.22c2.37-1.9,6.01-1.38,8.03,0.78c2.15,2.29,2.91,5.18,0.98,7.71
		C223.61,378.17,219.28,382.34,214.59,386.08z M233.83,402.44c-2.96,2.77-6.96,2.73-9.47,0.18c-2.51-2.54-2.61-6.25,0.11-9.19
		c3.26-3.53,6.72-6.9,10.2-10.23c2.15-2.06,4.8-2.42,7.48-1.16c2.3,1.09,3.38,3.15,3.64,5.65c-0.1,1.96-0.88,3.65-2.23,5.03
		C240.34,396,237.17,399.31,233.83,402.44z M261.98,409.08c-3.57,4.2-7.41,8.19-11.69,11.67c-2.63,2.14-5.51,1.77-8.06-0.32
		c-2.31-1.9-3.07-5.56-1.26-7.96c3.6-4.79,7.96-8.92,12.63-12.67c0.85-0.68,2.16-0.79,2.89-1.04c2.89,0.36,4.96,1.37,6.08,3.7
		C263.65,404.73,263.64,407.12,261.98,409.08z M271.68,427.59c-2.26-0.82-3.78-2.73-5.57-4.24c-1.02-0.86-0.1-1.42,0.45-1.97
		c2.25-2.24,4.57-4.41,6.09-7.26c0.28-0.53,0.51-0.97,1.3-0.77c2.2,0.55,6.74,6.15,6.79,8.47
		C280.86,426.28,276.28,429.26,271.68,427.59z M331.94,373.13c-2.47,2.95-7.08,3-10.76-0.05c-9.54-7.89-19.07-15.79-28.51-23.81
		c-1.76-1.49-2.76-1.57-4.04,0.39c-1.58,2.44-5.28,4.41-4.9,6.88c0.33,2.13,3.87,3.79,6.03,5.6c7.5,6.28,15.04,12.53,22.54,18.82
		c3.93,3.29,4.65,6.68,2.14,9.71c-2.43,2.93-6.92,3.13-10.46,0.21c-9.65-7.94-19.25-15.95-28.8-24.01
		c-1.63-1.37-2.69-1.82-4.06,0.28c-1.59,2.45-5.25,4.45-4.98,6.9c0.23,2.05,3.85,3.76,6.01,5.57c7.77,6.51,15.6,12.96,23.33,19.52
		c3.06,2.6,3.65,5.72,1.89,8.43c-1.8,2.78-5.26,3.62-8.77,2.05c-0.96-0.43-1.94-0.95-2.7-1.65c-5.17-4.76-11.33-8.38-15.47-14.37
		c-2.45-3.56-6.44-5.49-10.77-6.16c-1.66-0.26-2.32-0.63-2.59-2.45c-1.16-7.75-6.59-13.33-14.47-14.93c-1.99-0.4-2.9-0.97-3.22-3.2
		c-1.04-7.2-6.84-12.97-14.22-14.29c-2.03-0.36-2.91-1.08-3.32-3.18c-2.76-14-18.69-19.61-29.54-10.34
		c-4.11,3.51-7.89,7.45-11.56,11.43c-1.31,1.42-2.07,1.29-3.46,0.43c-4.6-2.85-9.24-5.66-13.94-8.33c-1.69-0.96-1.8-1.9-1.29-3.69
		c4.88-16.83,9.64-33.69,14.39-50.56c0.43-1.53,1.13-2.29,2.76-2.63c14.75-3.03,29.3-7.12,44.22-9.29c8.73-1.27,17.38,0.2,25.8,2.82
		c2.13,0.66,4.25,1.38,7.21,2.35c-3.21,1.65-5.78,2.99-8.36,4.3c-7.14,3.6-14.38,7-21.4,10.81c-7.74,4.19-11.13,11.91-9.84,21.32
		c1.02,7.45,6.94,13.94,14.77,15.83c5.25,1.27,10.28,0.45,14.95-2.38c6.54-3.96,13.1-7.9,19.68-11.8c6.64-3.94,11.6-3.44,17.33,1.71
		c15.44,13.88,30.87,27.77,46.3,41.66C333.8,366.57,334.51,370.06,331.94,373.13z M436,308.89c-31.07,15.43-62.09,30.96-93.08,46.56
		c-1.99,1-3.15,0.87-4.82-0.64c-15.54-14.12-31.16-28.14-46.77-42.17c-9.76-8.77-19.77-9.75-31.03-3.04
		c-6.37,3.79-12.7,7.66-19.09,11.42c-4.79,2.82-9.54,1.81-11.88-2.4c-2.48-4.46-0.86-9.75,3.98-12.22
		c10.46-5.35,20.97-10.6,31.51-15.82c6.66-3.3,13.55-3.47,20.63-1.39c10.15,3,20.33,5.9,30.51,8.78c2.03,0.57,4.06,1.11,6.2,1.34
		c4.48,0.47,8.42-0.54,12.44-2.68c33.54-17.81,67.17-35.46,100.78-53.15c3.34-1.76,3.35-1.75,3.36,2.11c0,9.79,0,19.58,0,29.37
		c0,9.79-0.07,19.58,0.05,29.37C438.79,306.63,438.15,307.82,436,308.89z"/>
	<path class="st1" d="M441.39,88.18C395.4,42.19,334.25,16.86,269.21,16.86S143.02,42.19,97.03,88.18
		c-45.99,45.99-71.32,107.14-71.32,172.18s25.33,126.19,71.32,172.18c45.99,45.99,107.14,71.32,172.18,71.32
		s126.19-25.33,172.18-71.32c45.99-45.99,71.32-107.14,71.32-172.18S487.38,134.17,441.39,88.18z M269.21,491.86
		c-127.65,0-231.5-103.85-231.5-231.5c0-127.65,103.85-231.5,231.5-231.5s231.5,103.85,231.5,231.5
		C500.71,388.01,396.86,491.86,269.21,491.86z"/>
</g>
</svg>
