<?xml version="1.0" encoding="utf-8"?>
<!-- Generator: Adobe Illustrator 24.2.1, SVG Export Plug-In . SVG Version: 6.00 Build 0)  -->
<svg version="1.1" id="Camada_1" xmlns="http://www.w3.org/2000/svg" xmlns:xlink="http://www.w3.org/1999/xlink" x="0px" y="0px"
	 viewBox="0 0 543.89 522.67" style="enable-background:new 0 0 543.89 522.67;" xml:space="preserve">
<style type="text/css">
	.st0{fill:#1D1D1B;}
</style>
<g>
	<path class="st0" d="M411.06,276.62c7.88-1.25,15.45-2.46,23.03-3.65c5.45-0.86,6.9-2.52,6.9-8.01c0.01-14.17,0.01-28.34,0-42.51
		c0-5.31-1.44-7.03-6.65-7.86c-7.98-1.27-15.97-2.53-23.97-3.73c-1.69-0.25-2.66-0.73-3.14-2.66c-3.53-14.39-9.06-27.98-16.85-40.61
		c-0.96-1.56-0.86-2.62,0.23-4.08c4.97-6.68,9.82-13.45,14.67-20.21c2.71-3.78,2.52-6.08-0.79-9.4
		c-10.26-10.29-20.53-20.56-30.82-30.82c-3.43-3.41-5.69-3.54-9.69-0.65c-6.65,4.8-13.33,9.58-19.92,14.46
		c-1.43,1.06-2.47,1.27-4.07,0.28c-12.53-7.72-25.99-13.26-40.27-16.76c-2.18-0.53-2.82-1.51-3.11-3.54
		c-1.13-7.88-2.42-15.75-3.67-23.61c-0.83-5.24-2.54-6.71-7.81-6.71c-14.29-0.01-28.58-0.01-42.87,0c-5.06,0-6.83,1.48-7.64,6.48
		C233.34,81.01,232.07,89,230.9,97c-0.27,1.84-0.81,2.84-2.87,3.35c-14.27,3.52-27.76,8.99-40.28,16.72
		c-1.68,1.03-2.78,0.93-4.38-0.27c-6.56-4.92-13.26-9.67-19.93-14.45c-3.99-2.86-6.18-2.67-9.67,0.81
		c-10.2,10.18-20.39,20.36-30.57,30.56c-3.59,3.6-3.72,5.72-0.68,9.96c4.73,6.56,9.41,13.16,14.25,19.63
		c1.17,1.56,1.37,2.65,0.31,4.37c-7.73,12.52-13.22,26.01-16.74,40.28c-0.5,2.03-1.43,2.64-3.31,2.92c-8,1.17-15.99,2.44-23.97,3.73
		c-5.04,0.81-6.52,2.56-6.53,7.6c-0.01,14.17-0.01,28.34,0,42.51c0,5.78,1.4,7.4,7.02,8.26c7.87,1.21,15.74,2.49,23.62,3.66
		c1.69,0.25,2.65,0.75,3.12,2.68c3.53,14.39,9.06,27.98,16.86,40.61c0.97,1.57,0.83,2.63-0.25,4.08
		c-4.9,6.59-9.67,13.26-14.47,19.92c-2.99,4.15-2.81,6.28,0.84,9.95c10.1,10.11,20.2,20.22,30.32,30.31
		c3.73,3.73,5.84,3.85,10.24,0.68c6.56-4.73,13.14-9.43,19.63-14.26c1.44-1.07,2.5-1.26,4.08-0.28
		c12.63,7.79,26.22,13.33,40.61,16.86c1.91,0.47,2.45,1.39,2.71,3.1c1.19,8,2.46,15.98,3.72,23.97c0.83,5.23,2.54,6.69,7.82,6.69
		c13.93,0.01,27.87,0,41.8,0c6.6,0,7.89-1.23,8.89-7.92c1.09-7.25,2.32-14.47,3.54-21.96c33.02,39.21,88.89,38.36,121.04,5.61
		C449.53,364.25,449.87,309.49,411.06,276.62z M287.22,380.43c-1.86,4.14-1.75,8.81-2.62,13.23c-0.85,4.31-1.67,8.66-2.04,13.03
		c-0.23,2.67-1.39,2.95-3.6,2.89c-5.12-0.14-10.24-0.04-15.36-0.04c-5.24,0-10.48-0.08-15.72,0.04c-1.94,0.05-2.56-0.53-2.84-2.5
		c-1.04-7.54-2.35-15.03-3.54-22.55c-0.84-5.29-1.81-6.49-6.97-7.59c-15.98-3.4-30.79-9.61-44.46-18.5
		c-3.49-2.27-6.37-2.27-9.71,0.3c-6.13,4.71-12.54,9.04-18.72,13.69c-1.68,1.26-2.58,1.21-4.07-0.31
		c-7.32-7.5-14.72-14.92-22.23-22.22c-1.58-1.54-1.44-2.46-0.23-4.07c4.63-6.19,9-12.57,13.68-18.72c2.43-3.19,2.65-6.02,0.42-9.41
		c-9.01-13.75-15.19-28.7-18.7-44.76c-1.13-5.19-2.27-6.09-7.6-6.92c-7.63-1.2-15.25-2.51-22.9-3.59c-1.77-0.25-2.08-0.93-2.07-2.48
		c0.05-10.84,0.06-21.67-0.01-32.51c-0.01-1.72,0.63-2.1,2.23-2.33c7.53-1.09,15.03-2.38,22.55-3.56c5.58-0.87,6.7-1.75,7.86-7.1
		c3.45-15.96,9.69-30.74,18.49-44.48c2.71-4.23,2.62-5.47-0.4-9.64c-4.46-6.17-8.89-12.36-13.44-18.46
		c-1.24-1.66-1.5-2.69,0.22-4.35c7.44-7.2,14.75-14.55,21.99-21.96c1.54-1.57,2.52-1.75,4.33-0.38c6.26,4.73,12.72,9.19,19,13.91
		c2.98,2.24,5.72,2.33,8.82,0.3c13.95-9.15,29.13-15.37,45.43-18.95c4.77-1.05,5.68-2.29,6.51-7.58c1.18-7.52,2.48-15.02,3.54-22.55
		c0.26-1.81,0.8-2.35,2.61-2.34c10.72,0.08,21.43,0.08,32.15,0c1.79-0.01,2.37,0.49,2.63,2.33c1.06,7.53,2.36,15.03,3.54,22.55
		c0.84,5.4,1.69,6.49,6.85,7.64c16.16,3.59,31.23,9.78,45.07,18.89c3.09,2.04,5.83,1.96,8.82-0.27c6.38-4.77,12.94-9.3,19.32-14.08
		c1.58-1.18,2.41-1.11,3.77,0.27c7.42,7.56,14.91,15.06,22.48,22.48c1.44,1.41,1.34,2.26,0.2,3.79c-4.7,6.29-9.14,12.76-13.88,19.02
		c-2.33,3.08-2.55,5.86-0.41,9.11c9.1,13.84,15.27,28.92,18.85,45.08c1.12,5.07,2.32,5.96,7.72,6.79
		c7.52,1.15,15.02,2.48,22.55,3.52c1.93,0.26,2.26,1.01,2.25,2.69c-0.05,10.72-0.07,21.43,0.02,32.15c0.02,1.88-0.66,2.31-2.4,2.56
		c-7.29,1.05-14.56,2.3-21.84,3.47c-0.59,0.09-1.28,0.01-1.75,0.29c-4.73,2.88-8.8,0.65-13.02-1.41c-3.19-1.56-6.59-2.79-10.11-3.34
		c-2.73-0.43-3.28-1.67-2.97-4.29c2.43-20.39-0.09-40.19-8.63-58.89c-17.38-38.08-46.9-61.03-88.16-67.87
		c-60.66-10.05-120.05,33.18-129.91,93.92c-10.1,62.17,29.37,119.36,91.09,131.93c11.63,2.37,23.39,2.72,35.16,1.26
		c2.45-0.3,3.85-0.12,4.41,2.8c1.05,5.5,3.19,10.68,5.82,15.62C288.15,377.56,288,378.7,287.22,380.43z M325.42,262.22
		c-0.01-17.44-7.06-26.86-23.97-32.04c-7.12-2.18-14.46-3.34-22.34-4.56c8.92-7.21,13.53-16.33,15.07-27.04
		c0.82-5.69,0.73-11.41-0.73-17.02c-3.29-12.71-12.99-20.67-26.12-21.5c-4.65-0.3-9.28-0.18-13.8,1.14
		c-11.91,3.48-19.64,13.32-20.47,26.34c-0.93,14.67,2.92,27.53,14.54,37.35c0.14,0.11,0.12,0.41,0.22,0.79
		c-7.96,1.19-15.89,2.46-23.5,5.17c-5.89,2.1-11.3,4.99-15.62,9.63c-4.04,4.33-6.48,9.41-6.51,15.39
		c-0.09,17.26-0.1,34.53-0.05,51.79c0.01,4.33,2.19,6.14,6.95,6.14c23.22,0.01,46.44,0.01,69.66,0.01c1.19,0,2.37,0,3.97,0
		c-1.25,5.3-2.77,10.35-3.39,15.6c-0.44,3.8-0.63,7.59-0.61,11.4c0.02,5.26,0.04,5.33-5.07,5.72c-30.79,2.37-58.1-6.23-80.41-27.69
		c-28.85-27.74-39.12-61.96-29.23-100.66c9.81-38.41,35.15-63.42,73.3-74.09c57.79-16.16,117.96,22.61,128.05,81.66
		c1.74,10.17,1.97,20.33,0.85,30.57c-0.21,1.88-0.68,2.59-2.73,2.49c-12.44-0.65-24.38,1.6-35.81,6.54
		c-1.65,0.71-2.45,0.75-2.26-1.33C325.47,263.42,325.42,262.82,325.42,262.22z M276.34,212.63c-7.11,8.66-18.09,8.78-25.07,0.04
		c-7.01-8.78-8.52-18.91-5.66-29.6c1.52-5.67,5.54-9.25,11.25-10.84c4.21-1.17,8.49-1.24,12.7-0.29c9.2,2.1,13.65,8.82,13.62,20.17
		C283.11,199.69,281.21,206.69,276.34,212.63z M284.89,302.44c-14.28-0.16-28.56-0.16-42.84,0c-2.81,0.03-3.27-0.87-3.24-3.41
		c0.15-9.64,0.08-19.28,0.05-28.92c-0.01-4.26-2.11-6.82-5.53-6.91c-3.49-0.09-5.86,2.66-5.88,7.01
		c-0.04,9.76-0.09,19.52,0.04,29.27c0.03,2.33-0.58,3.09-2.93,2.92c-3.54-0.26-8.2,1.13-10.34-0.64c-2.21-1.84-0.63-6.67-0.66-10.19
		c-0.09-10.71,0.21-21.43-0.11-32.13c-0.23-7.72,3.45-12.52,9.94-15.79c6.78-3.42,14.12-4.89,21.52-5.97
		c18.49-2.72,36.76-1.65,54.65,3.97c3.53,1.11,6.78,2.85,9.57,5.35c3.07,2.75,5.09,6.11,4.77,10.3c-0.42,5.45,2.27,11.74-1.28,16.16
		c-3.27,4.06-8.21,6.95-12.55,11.4c0-5.35,0.03-9.94-0.01-14.52c-0.04-4.42-2.26-7.14-5.76-7.15c-3.51-0.01-5.65,2.63-5.66,7.13
		c-0.02,9.4-0.08,18.8,0.04,28.2C288.74,301.38,287.99,302.48,284.89,302.44z M359.62,409.53c-38.41-0.12-69.5-31.37-69.46-69.84
		c0.04-38.45,31.23-69.58,69.7-69.55c38.46,0.04,69.67,31.2,69.7,69.6C429.58,378.25,398.12,409.65,359.62,409.53z"/>
	<path class="st0" d="M405.72,307.45c-6.73-5.85-16.54-5.4-23.2,1.28c-10.52,10.53-21,21.1-31.32,31.83
		c-2.15,2.23-3.22,2.04-5.15-0.09c-3.19-3.53-6.55-6.94-10.13-10.07c-5.33-4.65-11.54-5.53-17.96-2.62
		c-6.45,2.92-9.54,8.28-9.9,14.91c0.17,5.12,1.9,9.15,5.26,12.5c7.68,7.65,15.3,15.35,23,22.97c7.42,7.35,17.33,7.37,24.76,0.07
		c3.91-3.84,7.72-7.77,11.56-11.68c11.2-11.37,22.43-22.7,33.57-34.12C413.59,324.88,413.31,314.05,405.72,307.45z M398.25,324.2
		c-3.01,3.21-6.15,6.31-9.24,9.45c-11.7,11.87-23.4,23.74-35.12,35.6c-3.92,3.97-6.33,4-10.22,0.12
		c-7.34-7.31-14.65-14.65-21.98-21.97c-1.92-1.92-2.87-4.06-1.55-6.74c1.08-2.19,2.97-2.92,4.61-3.02c2.41,0.23,3.68,1.23,4.88,2.45
		c4.52,4.57,9.08,9.11,13.64,13.64c4.21,4.19,6.71,4.22,10.83,0.05c11.46-11.6,22.9-23.23,34.35-34.85
		c0.75-0.76,1.48-1.55,2.27-2.27c2.52-2.3,5.49-2.42,7.67-0.36C400.74,318.51,400.76,321.52,398.25,324.2z"/>
	<path class="st0" d="M441.78,88.18C395.79,42.19,334.64,16.86,269.6,16.86S143.41,42.19,97.42,88.18
		C51.43,134.17,26.1,195.32,26.1,260.36s25.33,126.19,71.32,172.18c45.99,45.99,107.14,71.32,172.18,71.32
		s126.19-25.33,172.18-71.32c45.99-45.99,71.32-107.14,71.32-172.18S487.77,134.17,441.78,88.18z M269.6,491.86
		c-127.65,0-231.5-103.85-231.5-231.5c0-127.65,103.85-231.5,231.5-231.5s231.5,103.85,231.5,231.5
		C501.1,388.01,397.25,491.86,269.6,491.86z"/>
</g>
</svg>
