<?xml version="1.0" encoding="utf-8"?>
<!-- Generator: Adobe Illustrator 24.2.1, SVG Export Plug-In . SVG Version: 6.00 Build 0)  -->
<svg version="1.1" id="Camada_1" xmlns="http://www.w3.org/2000/svg" xmlns:xlink="http://www.w3.org/1999/xlink" x="0px" y="0px"
	 viewBox="0 0 546.7 525.3" style="enable-background:new 0 0 546.7 525.3;" xml:space="preserve">
<style type="text/css">
	.st0{fill:#FFFFFF;}
</style>
<g>
	<path class="st0" d="M412.1,264.6c14.8-17.5,16.8-44,4-63.1c-3.8-5.6-5.1-10.6-4.7-17.4c1.3-23.7-12.8-44.2-35-52.5
		c-1.5-0.6-2.5-1.3-3.1-2.9c-9.3-24.9-33.4-39-59.7-34.8c-2,0.3-3.3-0.2-4.7-1.4c-5.6-4.9-12.1-8.3-19.4-10.2
		c-2.8-0.7-5.6-1.4-8.4-2.1c-4.5,0-9,0-13.6,0c-0.3,0.7-0.9,0.6-1.5,0.7c-9.2,1.4-17.6,4.9-24.8,10.9c-2.1,1.7-3.9,2.3-6.6,1.9
		c-25.9-3.8-49.2,10.1-58.5,34.6c-0.6,1.6-1.4,2.5-3,3.1c-24.7,9.2-39,33.5-34.8,59.4c0.4,2.3-0.2,3.7-1.6,5.3
		c-15.8,18.9-16.1,48.3-0.5,67.2c1.9,2.2,2.4,4.1,1.9,7c-3.6,22.5,8.6,46.1,29,55.9c2.7,1.3,3.1,2,1.5,4.7
		c-13.4,22.9-26.6,45.8-39.8,68.7c-3.8,6.5-0.6,12,7,11.9c10.4-0.1,20.7-0.2,31.1-0.5c2.4-0.1,3.6,0.6,4.7,2.7
		c4.8,8.9,9.8,17.6,14.7,26.5c1.6,3,3.5,5.5,7.2,5.5c3.9,0.1,5.8-2.5,7.6-5.5c13.1-22.8,26.4-45.6,39.4-68.5c1.3-2.2,2-2.4,4.1-0.9
		c9.2,6.5,19.7,9.3,30.9,9.2c11.6-0.2,22.1-3.7,31.5-10.8c0.7,1.2,1.3,2.2,1.9,3.3c13.2,22.8,26.4,45.6,39.6,68.4
		c3.9,6.7,10.2,6.6,14-0.1c5.1-9,10.2-18,15.1-27.1c1.1-2.1,2.5-2.7,4.8-2.6c10.1,0.3,20.2,0.3,30.3,0.5c3.4,0.1,6.5-0.4,8.3-3.6
		c1.8-3.2,0.7-6.1-1-9c-13.2-22.8-26.4-45.6-39.5-68.4c-0.7-1.3-2.3-2.4,0.4-3.8c23-11.7,33.7-32.4,30.1-57.7c0.3-1.5,0.6-3,1.2-4.4
		C412,264.7,412.1,264.7,412.1,264.6z M302.9,106.6c2.6,2.7,5.4,3.3,9,2.4c22.3-5.8,43,6.2,49,28.5c0.9,3.5,3,5.4,6.4,6.4
		c22.1,5.9,34.3,26.7,28.5,48.7c-1,3.9-0.2,6.8,2.6,9.6c15.6,15.4,15.7,40.6,0.1,56c-3,2.9-4,5.9-2.6,9.9c1.1,3.3,1.5,6.7,1.5,10.2
		c0.1,17.9-11.9,33.5-29.6,38.2c-3.9,1-6,3.1-7,7c-5.3,21-27.5,33.9-48.5,28c-4.1-1.1-7-0.3-9.9,2.7c-15.7,15.6-39.9,15.7-55.7,0
		c-3.1-3-6.1-3.8-10.3-2.7c-21.5,5.6-42.6-6.8-48.3-28.3c-1-3.8-3.1-5.8-6.9-6.8c-21.7-5.8-33.9-26.9-28.1-48.7
		c1.1-4,0.2-6.8-2.6-9.6c-15.8-15.6-15.6-40.6,0.2-56.2c2.8-2.7,3.5-5.5,2.5-9.3c-5.8-22,6.4-43,28.4-48.8c3.6-1,5.6-3.1,6.6-6.6
		c6.3-22.3,26.8-34.1,49.2-28.2c3.6,0.9,6.2,0.1,8.7-2.4C262.3,90.5,287,90.5,302.9,106.6z M368,401.8c-4,7.4-8.2,14.7-12.6,22.5
		c-11-19.1-21.8-37.8-32.8-56.8c20.5-1,36-9.8,46.9-27.2c10.9,18.9,21.8,37.7,32.6,56.5c-8.8,0-17.2,0.1-25.5,0
		C372.6,396.8,369.9,398.2,368,401.8z M169.3,396.8c-7.2,0.6-14.5,0.1-22.3,0.1c10.8-18.8,21.6-37.5,32.7-56.6
		c10.9,17.5,26.4,26.3,46.9,27.2c-11,19-21.7,37.6-32.8,56.9c-3.9-6.9-7.9-13.1-11-19.8C180,398.5,175.9,396.3,169.3,396.8z"/>
	<path class="st0" d="M168.1,230.1c0.1,56.3,39.2,105.9,107,107.1c58.3,1,106.5-48,106.6-106.7c0.1-59-47.7-107.9-106.4-107.2
		C209.2,124.1,168.4,172.3,168.1,230.1z M274.7,138c48.1,0.1,91.9,33.7,92.6,93.3c0.6,50.3-42,91.9-92.8,91.9
		c-50.8-0.1-93.3-41.7-92.6-92.1C182.7,171.5,226.7,137.9,274.7,138z"/>
	<path class="st0" d="M232.1,241.6c1.3,1.3,1.7,2.4,1.4,4.4c-2.1,12.8-3.9,25.6-5.9,38.4c-0.3,5.8,5.3,9.3,10.9,6.6
		c11.2-5.5,22.3-11,33.4-16.7c1.9-1,3.3-1,5.2,0c11,5.6,22,11.1,33.1,16.6c2.9,1.4,5.7,1.7,8.4-0.4c2.4-1.8,3.1-4.3,2.6-7.3
		c-1.9-12.3-3.6-24.7-5.6-37c-0.3-2,0-3.3,1.4-4.7c8.5-8.5,16.9-17.1,25.4-25.6c2.5-2.5,4.4-5,3.2-8.8c-1.2-3.8-4.3-4.7-7.8-5.3
		c-11.7-1.9-23.4-4-35.2-5.7c-2.4-0.4-3.5-1.4-4.5-3.3c-5.5-10.8-11.1-21.5-16.6-32.3c-1.5-3-3.6-5.1-7.1-5.1c-3.5,0-5.5,2.2-7,5.2
		c-5.4,10.7-11,21.3-16.5,31.9c-1,2-2.2,3.2-4.7,3.6c-12,1.8-23.9,3.9-35.9,5.9c-3.3,0.5-5.9,1.8-7,5.2c-1.1,3.4,0.4,5.9,2.8,8.2
		C214.9,224.2,223.5,232.9,232.1,241.6z M225.6,214.1c8.9-1.5,17.9-3.2,26.8-4.4c4.5-0.6,7.3-2.6,9.3-6.6c4-8.2,8.3-16.2,12.8-24.8
		c2,3.9,3.9,7.3,5.6,10.7c2.5,4.8,5.1,9.6,7.5,14.6c1.7,3.7,4.5,5.5,8.5,6.1c9.1,1.3,18.2,2.9,28,4.5c-1.9,2-3.5,3.7-5.2,5.3
		c-5.1,5.2-10.1,10.4-15.3,15.5c-2.4,2.4-3.4,4.9-2.8,8.3c1.5,9.5,2.9,19,4.4,29.1c-5.1-2.6-10-5-14.7-7.4
		c-3.8-1.9-7.7-3.8-11.5-5.8c-3-1.5-5.8-1.5-8.8,0.1c-8.5,4.4-17.1,8.6-26.1,13.1c1.5-10.1,2.8-19.5,4.3-28.9
		c0.6-3.5-0.3-6.3-2.9-8.6c-6.9-6.5-13.8-13-20.7-19.6C225.1,214.9,225.4,214.5,225.6,214.1z"/>
	<path class="st0" d="M447.6,88.2c-46-46-107.1-71.3-172.2-71.3S149.3,42.2,103.3,88.2S31.9,195.3,31.9,260.4s25.3,126.2,71.3,172.2
		s107.1,71.3,172.2,71.3s126.2-25.3,172.2-71.3s71.3-107.1,71.3-172.2S493.6,134.2,447.6,88.2z M275.4,491.9
		C147.8,491.9,43.9,388,43.9,260.4S147.8,28.9,275.4,28.9s231.5,103.9,231.5,231.5S403.1,491.9,275.4,491.9z"/>
</g>
</svg>
