<svg xmlns="http://www.w3.org/2000/svg" xmlns:xlink="http://www.w3.org/1999/xlink" xmlns:svgjs="http://svgjs.com/svgjs" width="512" height="512" x="0" y="0" viewBox="0 0 64 64" style="enable-background:new 0 0 512 512" xml:space="preserve" class=""><g transform="matrix(1,0,0,1,0,0)"><path d="m53.249 21.538-1.751-.145a.977.977 0 0 1-.852-.653c-.283-.85-.63-1.691-1.032-2.499a.973.973 0 0 1 .14-1.064l1.134-1.341c1-1.182.925-2.964-.17-4.059l-3.495-3.496a3.017 3.017 0 0 0-4.059-.169l-1.342 1.135a.976.976 0 0 1-1.063.139c-.806-.4-1.646-.748-2.498-1.033a.977.977 0 0 1-.654-.851l-.145-1.752A3.018 3.018 0 0 0 34.472 3h-4.945a3.018 3.018 0 0 0-2.989 2.751l-.145 1.751a.977.977 0 0 1-.653.852c-.85.283-1.691.63-2.499 1.032a.976.976 0 0 1-1.064-.14l-1.341-1.134a3.019 3.019 0 0 0-4.059.17l-3.496 3.495a3.017 3.017 0 0 0-.169 4.059l1.135 1.342c.256.301.31.718.139 1.063-.4.806-.748 1.646-1.033 2.498a.977.977 0 0 1-.851.654l-1.752.145A3.018 3.018 0 0 0 8 24.528v4.945a3.018 3.018 0 0 0 2.751 2.989l1.751.145c.395.034.73.29.852.653.283.85.63 1.691 1.032 2.499a.973.973 0 0 1-.14 1.064l-1.134 1.341a3.017 3.017 0 0 0 .17 4.059l3.216 3.216-3.906 9.707c-.33.82.522 1.637 1.327 1.29l6.919-3.014 2.9 6.963c.338.812 1.523.8 1.85-.012l3.78-9.389c.053.003.105.016.16.016h4.945c.054 0 .106-.013.16-.015l3.779 9.388c.329.817 1.514.821 1.85.012l2.9-6.963 6.919 3.014c.81.353 1.654-.475 1.327-1.29l-2.65-6.59c-.48-1.194-2.34-.458-1.856.747l1.74 4.325-5.613-2.445a1.005 1.005 0 0 0-1.322.532l-2.352 5.646-2.875-7.143a2.993 2.993 0 0 0 .982-1.969l.145-1.751a.977.977 0 0 1 .653-.852c.85-.283 1.691-.63 2.499-1.032a.973.973 0 0 1 1.064.14l1.341 1.134c1.183 1 2.965.926 4.059-.17l3.496-3.495a3.017 3.017 0 0 0 .169-4.059l-1.135-1.342a.973.973 0 0 1-.139-1.063c.4-.806.748-1.646 1.033-2.498a.977.977 0 0 1 .851-.654l1.752-.145a3.018 3.018 0 0 0 2.75-2.99v-4.945a3.018 3.018 0 0 0-2.751-2.989zM24.645 57.361l-2.352-5.646a1.006 1.006 0 0 0-1.322-.532l-5.613 2.445 2.863-7.114c.896.204 1.874 0 2.615-.626l1.342-1.135a.976.976 0 0 1 1.063-.139c.806.4 1.646.748 2.498 1.033.364.123.62.457.654.851l.145 1.752c.065.78.434 1.472.982 1.968zM54 29.473a.995.995 0 0 1-.917.997l-1.751.145a2.971 2.971 0 0 0-2.581 2.011c-.256.765-.568 1.52-.928 2.242a2.972 2.972 0 0 0 .404 3.246l1.133 1.341c.334.395.309.988-.055 1.354l-3.496 3.496c-.366.363-.96.39-1.354.055l-1.34-1.132a2.972 2.972 0 0 0-3.247-.405c-.724.36-1.478.672-2.243.927a2.974 2.974 0 0 0-2.01 2.582l-.145 1.75a.995.995 0 0 1-.997.918h-4.946a.995.995 0 0 1-.997-.917l-.145-1.751a2.971 2.971 0 0 0-2.011-2.581 17.59 17.59 0 0 1-2.242-.928 2.994 2.994 0 0 0-3.246.404l-1.341 1.133a1.006 1.006 0 0 1-1.354-.055l-3.496-3.496a1.006 1.006 0 0 1-.055-1.354l1.132-1.34a2.972 2.972 0 0 0 .405-3.247 17.434 17.434 0 0 1-.927-2.243 2.974 2.974 0 0 0-2.582-2.01l-1.75-.145a.995.995 0 0 1-.918-.997v-4.946c0-.524.395-.953.917-.997l1.751-.145a2.971 2.971 0 0 0 2.581-2.011c.256-.765.568-1.52.928-2.242a2.972 2.972 0 0 0-.404-3.246l-1.133-1.341a1.006 1.006 0 0 1 .055-1.354l3.496-3.496c.366-.363.96-.39 1.354-.055l1.34 1.132a2.973 2.973 0 0 0 3.247.405c.724-.36 1.478-.672 2.243-.927a2.974 2.974 0 0 0 2.01-2.582l.145-1.75A.995.995 0 0 1 29.527 5h4.946c.524 0 .953.395.997.917l.145 1.751a2.971 2.971 0 0 0 2.011 2.581c.765.256 1.52.568 2.242.928a2.971 2.971 0 0 0 3.246-.404l1.341-1.133a1.008 1.008 0 0 1 1.354.055l3.496 3.496c.364.366.39.96.055 1.354l-1.132 1.34a2.972 2.972 0 0 0-.405 3.247c.36.724.672 1.478.927 2.243a2.974 2.974 0 0 0 2.582 2.01l1.75.145a.995.995 0 0 1 .918.997z" fill="#ffffff" data-original="#000000" class=""></path><path d="M32 12c-3.26 0-6.364 1.033-8.978 2.989-.994.744.154 2.383 1.197 1.602A12.897 12.897 0 0 1 32 14c7.168 0 13 5.832 13 13s-5.832 13-13 13-13-5.832-13-13c0-2.824.895-5.514 2.59-7.781.735-.982-.806-2.263-1.6-1.198A14.878 14.878 0 0 0 17 27c0 8.271 6.729 15 15 15s15-6.729 15-15-6.729-15-15-15z" fill="#ffffff" data-original="#000000" class=""></path><path d="M32 38c6.065 0 11-4.935 11-11s-4.935-11-11-11-11 4.935-11 11 4.935 11 11 11zm0-20c4.963 0 9 4.037 9 9s-4.037 9-9 9-9-4.037-9-9 4.037-9 9-9z" fill="#ffffff" data-original="#000000" class=""></path><path d="m25.566 26.865 2.65 1.992-1.03 3.282c-.19.604.025 1.252.534 1.611.48.339 1.127.326 1.594-.026L32 31.705l2.685 2.019a1.351 1.351 0 0 0 1.595.026c.51-.36.724-1.007.534-1.612l-1.03-3.28 2.649-1.992c.492-.37.69-1.018.49-1.613a1.367 1.367 0 0 0-1.305-.958h-3.264l-1.04-3.312C33.128 20.396 32.601 20 32 20s-1.13.396-1.313.983l-1.04 3.312h-3.265c-.599 0-1.112.376-1.306.958a1.441 1.441 0 0 0 .49 1.612zm4.544-.57c.604 0 1.131-.397 1.314-.983L32 23.477l.575 1.832c.184.59.711.986 1.315.986h1.974l-1.604 1.207a1.45 1.45 0 0 0-.5 1.587l.592 1.882-1.535-1.154a1.347 1.347 0 0 0-1.631-.002l-1.538 1.156.593-1.887a1.45 1.45 0 0 0-.5-1.582l-1.605-1.207h1.974z" fill="#ffffff" data-original="#000000" class=""></path></g></svg>