<svg xmlns="http://www.w3.org/2000/svg" xmlns:xlink="http://www.w3.org/1999/xlink" xmlns:svgjs="http://svgjs.com/svgjs" width="512" height="512" x="0" y="0" viewBox="0 0 480 480" style="enable-background:new 0 0 512 512" xml:space="preserve"><g><path d="M472.004 8H352a7.999 7.999 0 0 0-5.656 13.656L380.688 56l-17.021 17.02A205.55 205.55 0 0 0 240 32c-114.707-.169-207.831 92.683-208 207.39a207.68 207.68 0 0 0 8.182 58.026L2.75 329.965a8.005 8.005 0 0 0-.898 11.156l40 48a8.003 8.003 0 0 0 11.461.859l23.643-21.016c70.879 90.279 201.524 106.006 291.803 35.126 85.228-66.914 104.743-188.081 44.833-278.37L432 107.313l34.344 34.344A8 8 0 0 0 480 136.001V16a7.998 7.998 0 0 0-7.996-8zM240 48a193.338 193.338 0 0 1 40 4.307V68a4.005 4.005 0 0 1-4 4h-32c-11.041.012-19.988 8.959-20 20v16a4.005 4.005 0 0 1-4 4h-32a4.005 4.005 0 0 1-4-4c-.012-11.041-8.959-19.988-20-20h-8c-11.041.012-19.988 8.959-20 20v24a4.005 4.005 0 0 1-4 4H78.734C114.052 81.178 174.787 48.037 240 48zM56.353 184H108a4.005 4.005 0 0 1 4 4v8a4.005 4.005 0 0 1-4 4h-8c-11.041.012-19.988 8.959-20 20a4.005 4.005 0 0 1-4 4H48.718a190.788 190.788 0 0 1 7.635-40zM76 240c11.041-.012 19.988-8.959 20-20a4.005 4.005 0 0 1 4-4h8c11.041-.012 19.988-8.959 20-20v-8c-.012-11.041-8.959-19.988-20-20H62.06a189.013 189.013 0 0 1 7.381-16H132c11.041-.012 19.988-8.959 20-20v-24a4.005 4.005 0 0 1 4-4h8a4.005 4.005 0 0 1 4 4c.012 11.041 8.959 19.988 20 20h32c11.041-.012 19.988-8.959 20-20V92a4.005 4.005 0 0 1 4-4h32c11.041-.012 19.988-8.959 20-20V56.422a189.936 189.936 0 0 1 56.227 28.039L232 204.688l-34.344-34.344a7.99 7.99 0 0 0-10.906-.379L53.576 285.769A192.262 192.262 0 0 1 48 240h28zm69.182 166.765a192.397 192.397 0 0 1-56.242-48.453L141.044 312H184a8.008 8.008 0 0 1 8 8c.062 13.229 10.771 23.938 24 24a7.83 7.83 0 0 1 5.703 2.449A7.69 7.69 0 0 1 224 352v16a8.008 8.008 0 0 1-8 8h-32c-18.496.047-34.548 12.768-38.818 30.765zm95.629 25.214c3.834-18.6 20.198-31.954 39.189-31.979h24c13.255 0 24-10.745 24-24s-10.745-24-24-24h-20a4 4 0 0 1 0-8h117.266c-35.166 54.573-95.534 87.674-160.455 87.979zM410.559 328H284c-11.046 0-20 8.954-20 20s8.954 20 20 20h20a8 8 0 0 1 0 16h-24c-27.541.05-50.964 20.105-55.255 47.31a191.866 191.866 0 0 1-64.586-16.878c.803-12.587 11.228-22.396 23.841-22.432h32c13.249-.014 23.986-10.751 24-24v-16c-.062-13.229-10.771-23.938-24-24a7.83 7.83 0 0 1-5.703-2.449A7.69 7.69 0 0 1 208 320c-.014-13.249-10.751-23.986-24-24h-24.956l32.636-29.008 34.664 34.664a7.996 7.996 0 0 0 11.309.003l.003-.003L331.313 208H364c6.627 0 12 5.373 12 12s-5.373 12-12 12h-28c-13.228.066-23.934 10.772-24 24 .014 13.249 10.751 23.986 24 24h91.779a190.51 190.51 0 0 1-17.22 48zm11.371-149.437a190.66 190.66 0 0 1 8.517 85.438H336a8.008 8.008 0 0 1-8-8 7.814 7.814 0 0 1 2.445-5.695 7.68 7.68 0 0 1 5.555-2.305h28c15.464 0 28-12.536 28-28s-12.536-28-28-28h-16.688l16-16h57.645c.306.86.68 1.695.973 2.562zM414.409 160h-35.096l22.73-22.73A192.198 192.198 0 0 1 414.409 160zM464 116.688l-26.344-26.344a7.996 7.996 0 0 0-11.309-.003l-.003.003L232 284.688l-34.344-34.344a7.998 7.998 0 0 0-10.969-.324L48.859 372.535l-29.695-35.637 172.453-149.965 34.727 34.722a7.996 7.996 0 0 0 11.309.003l.003-.003 160-160a7.996 7.996 0 0 0 .003-11.309l-.003-.003L371.313 24H464v92.688zM424 440h16v16h-16zM464 464h16v16h-16zM448 400h16v16h-16zM384 464h16v16h-16zM464 352h16v16h-16zM0 0h16v16H0zM40 16h16v16H40zM8 48h16v16H8zM88 0h16v16H88zM40 64h16v16H40zM0 96h16v16H0z" fill="#ffffff" data-original="#000000"></path></g></svg>